<svg width="222" height="66" viewBox="0 0 222 66" fill="none" xmlns="http://www.w3.org/2000/svg">
<path d="M97.229 3.88182C100.69 3.62696 107.633 3.14347 110.006 6.0105C110.55 8.0929 108.8 17.0214 107.971 19.2482C106.046 19.1974 104.445 18.59 102.66 18.4126C100.631 18.2112 96.5926 18.2343 96.5184 20.9795C96.4141 24.8361 102.287 25.1808 104.872 26.562C106.989 27.6936 108.47 28.5595 110.035 30.3864C113.198 33.9455 114.258 41.2625 113.854 45.8261C113.38 51.1835 111.108 57.1136 106.843 60.6091C101.078 65.3353 96.4967 65.8727 89.4478 65.3161C85.5634 65.0303 80.9672 63.0597 77.7047 60.9248C77.9444 57.683 80.3122 46.121 81.3696 43.2915C87.0926 44.6863 93.5812 48.6507 97.7697 42.1175L97.7912 39.2225C93.851 32.8539 86.7769 35.4043 82.2739 30.0942C78.8468 26.0529 78.8342 18.9703 80.7458 14.2797C83.4324 7.6881 90.6376 4.80039 97.229 3.88182Z" fill="#18181B"/>
<path fill-rule="evenodd" clip-rule="evenodd" d="M126.7 19.0562C129.888 18.7415 132.607 18.9742 135.516 20.6423C142.155 24.4494 141.348 35.6254 137.818 41.2619C135.56 44.8673 132.883 46.0908 128.74 46.9487C128.758 48.7161 128.76 50.38 128.907 52.1413C134.822 52.2138 140.932 51.5814 146.871 51.6314C148.526 51.6452 150.576 51.5982 152.207 51.4447C152.455 54.4873 152.849 57.7321 153.164 60.7852C153.295 62.1946 153.438 63.6027 153.595 65.0089C148.326 65.2899 141.751 65.105 136.36 65.1702C131.507 65.2292 124.208 65.4729 119.621 65.0787C119.067 57.6203 119.303 47.9807 119.292 40.3809C119.297 36.9085 119.281 33.4356 119.243 29.9635C119.224 28.6401 118.927 21.97 119.484 21.1177C120.83 20.0897 125.016 19.2151 126.7 19.0562ZM127.515 28.8927C127.47 31.2539 127.433 34.5432 127.599 36.8963C129.087 36.5573 129.445 36.5095 130.555 35.4648C131.196 34.4779 131.621 33.6021 131.934 32.4555C131.333 29.7808 130.333 28.8541 127.515 28.8927Z" fill="#18181B"/>
<path d="M200.714 14.4058C203.812 14.2667 206.915 14.5393 209.942 15.2162C210.394 18.218 210.192 24.2917 209.656 27.2531C207.999 27.3421 205.613 27.0116 203.876 26.9807C202.175 26.9505 201.251 27.0513 199.558 27.2738C199.52 29.0739 199.531 30.8748 199.587 32.6745C201.478 32.7023 203.887 32.5069 205.846 32.4412C206.934 36.0261 207.132 38.8396 205.928 42.4248C203.994 42.4106 201.93 42.6326 200.011 42.8495C199.972 44.9356 200.101 47.3277 200.171 49.4313C202.951 49.21 207.153 48.6176 209.799 47.8802C210.849 50.3204 210.811 51.9442 210.999 54.5668C211.077 57.0179 211.24 59.295 210.799 61.7164C204.646 63.8399 199.162 64.6843 192.787 62.9272C192.377 62.8139 191.781 62.5981 191.578 62.1868C189.897 58.7812 190.32 23.8654 190.954 18.381C191.03 17.7269 191.201 17.1246 191.413 16.5034C193.62 14.5051 197.841 14.5189 200.714 14.4058Z" fill="#18181B"/>
<path d="M181.45 13.7675C183.089 13.7304 186.527 14.4604 187.662 15.6556C188.121 17.0607 187.109 27.5004 186.865 29.4784C184.445 29.1487 183.311 28.1672 180.622 29.2223C178.497 29.9919 177.355 31.5618 176.436 33.5554C174.426 37.915 175.528 44.8617 180.369 46.8905C183 47.9933 184.619 47.0303 187.072 45.9873C188.18 49.8052 188.843 57.5922 188.837 61.6373C187.938 62.3482 187.55 62.6229 186.55 63.174C185.614 63.649 184.605 63.9672 183.565 64.1146C172.802 65.6063 167.226 53.8054 166.167 44.8998C164.801 33.4117 167.125 15.4774 181.45 13.7675Z" fill="#18181B"/>
<path fill-rule="evenodd" clip-rule="evenodd" d="M152.447 16.5735C153.879 16.4028 156.431 16.4817 157.884 16.5025C159.643 22.1678 161.132 29.6829 162.263 35.565C163.833 43.7367 165.976 53.6319 166.846 61.8514C163.835 62.9146 159.897 63.5976 156.71 63.326C156.358 61.3609 155.876 59.7232 155.667 57.7022C155.072 53.3985 154.637 49.1402 154.007 44.8183C152.37 44.8023 151.104 44.7967 149.479 44.9304C149.127 45.9831 148.743 47.6561 148.458 48.7728C145.484 48.984 142.495 48.772 139.581 48.1428C140.834 43.7022 141.348 38.5415 142.68 34.0262C144.272 28.6264 145.192 22.93 146.937 17.5788C148.68 16.9248 150.604 16.7357 152.447 16.5735ZM152.277 29.2034C151.886 31.1747 151.364 34.3763 150.602 36.1374C151.19 36.1297 151.853 36.1067 152.435 36.1192C152.831 36.109 153.551 36.1499 153.846 35.9537C153.914 34.9198 152.821 29.8351 152.277 29.2034Z" fill="#18181B"/>
<path d="M214.566 0.00155257C215.949 -0.0321304 215.823 0.481031 216.233 1.6604C216.674 2.93384 216.946 4.19796 217.715 5.32999C218.524 6.51991 221.178 8.00415 221.563 9.28131C221.175 9.91073 219.077 10.9844 218.088 12.2876C216.405 14.507 216.599 16.1497 215.49 18.128C214.552 17.9687 214.294 17.4757 214.072 16.5533C213.157 12.7435 211.392 11.3364 208.325 9.15077C209.011 8.39143 210.107 7.55773 210.946 6.92008C213.051 5.3227 213.882 2.50682 214.566 0.00155257Z" fill="#18181B"/>
<path d="M47.7751 20.8123C49.0322 20.6577 50.8856 20.6966 52.1021 20.9552C53.4516 30.0372 54.5812 39.3798 56.201 48.3737C56.5864 44.8788 57.3991 40.3973 58.0298 36.912C58.5111 34.2513 59.7774 22.0324 61.1536 21.0446C63.3264 20.3468 70.2059 22.0531 72.4322 23.1118C71.2606 29.3782 70.1445 36.1636 68.5046 42.305C67.0148 48.7836 65.044 57.4062 62.9298 63.7022C58.8241 65.749 53.5301 66.0938 49.1456 64.821C49.1189 64.7738 49.0928 64.7263 49.0657 64.6795C46.8033 60.7728 40.2426 28.5388 39.9624 22.9579C42.4698 21.6002 44.9588 21.0815 47.7751 20.8123Z" fill="#18181B"/>
<path d="M15.2063 4.67827C19.3551 4.23689 29.2279 4.29814 33.1358 5.82961C33.3591 8.44118 33.2007 11.1854 33.2443 13.8083C33.2842 16.2202 32.7155 18.2775 32.3325 20.6244C29.7183 20.7687 26.845 20.5524 24.1968 20.513C21.2598 20.4694 18.5138 20.5756 15.5814 20.7146C15.5509 23.0211 15.5638 25.3282 15.62 27.6341L15.7216 27.6403C18.9884 27.8645 22.213 27.1617 25.551 27.351C26.9276 29.4133 27.1791 31.3807 27.0837 33.8349C27.0228 35.4019 27.3144 38.1991 26.4682 39.498C25.2174 40.2493 18.3593 40.5334 16.358 40.6901C16.4456 43.2279 16.4989 45.8554 16.7266 48.3774C19.2674 48.3969 22.0822 48.4054 24.5994 48.1533C27.3643 47.8765 30.055 47.1963 32.8557 47.223C33.2018 48.3294 33.6098 50.1029 33.9124 51.2646C34.6147 55.0659 34.8003 59.9399 34.3539 63.778C25.6015 67.0343 13.7401 66.3497 4.88498 64.0468C2.34617 63.3866 1.90152 61.609 1.64848 59.224C1.15086 51.592 -0.171525 42.4982 0.0185404 34.9198C0.183648 28.346 0.255251 13.8496 2.04033 7.88231C5.3778 5.53375 11.1558 5.00138 15.2063 4.67827Z" fill="#18181B"/>
</svg>
